<svg id="Layer_1" data-name="Layer 1" xmlns="http://www.w3.org/2000/svg" viewBox="0 0 620.6 260.82"><title>Hewlett Packard Enterprise logo - Brandlogos.net</title><path d="M86.86,416.91H73.7V355.48H86.86v24.38h23.89V355.48h13.16v61.43H110.75V391.56H86.86Zm67.28,1c-13.65,0-22.43-8.78-22.43-22.43s8.78-22.91,21-22.91c13.16,0,19.5,8.78,19.5,21.94v4.88H144.39c1.46,6.83,6.83,8.78,12.19,8.78a23.15,23.15,0,0,0,12.19-3.41h.49V415A41.51,41.51,0,0,1,154.14,417.88Zm-9.75-28.28H160c-.49-4.39-2-7.8-7.31-7.8C148.78,382.29,145.36,383.76,144.39,389.61Zm61.91,1.46-6.83,25.84h-11.7l-13.16-43.39V373h12.68l7.31,25.84L201.43,373h10.24l6.83,25.84L225.8,373H238v.49l-13.16,43.39h-11.7Zm53.63,26.81c-10.73,0-14.63-4.39-14.63-14.14V355.48H258v47.29c0,2.93,1,3.9,3.9,3.9,1,0,2-.49,2.93-.49v10.73A12.23,12.23,0,0,1,259.93,417.88Zm31.2,0c-13.65,0-22.43-8.78-22.43-22.43s8.78-22.91,21-22.91c13.16,0,19.5,8.78,19.5,21.94v4.88H281.38c1.46,6.83,6.83,8.78,12.19,8.78a23.15,23.15,0,0,0,12.19-3.41V415A40.89,40.89,0,0,1,291.13,417.88Zm-10.24-28.28h15.6c-.49-4.39-2-7.8-7.31-7.8C285.28,382.29,281.87,383.76,280.89,389.61ZM361.33,373h9.75v10.24h-9.75v17.55c0,3.9,1.46,5.36,5.36,5.36a12.12,12.12,0,0,0,3.9-.49h.49v10.24a24.46,24.46,0,0,1-7.8,1.46c-10.24,0-14.63-4.88-14.63-16.09V382.78H332.08v17.55c0,3.9,1.46,5.36,5.36,5.36a12.12,12.12,0,0,0,3.9-.49h.49v10.24a24.46,24.46,0,0,1-7.8,1.46c-10.24,0-14.63-4.88-14.63-16.09V382.29h-6.83V372.06h6.83V359.87h12.68v12.19h16.58V359.87h12.68ZM437.87,376c0,13.16-8.78,20.48-22.43,20.48h-9.26v20H393V355.48h22.91C429.09,355.48,437.87,362.79,437.87,376Zm-23.4,9.75c6.83,0,9.75-3.9,9.75-9.26,0-5.85-3.41-9.75-9.75-9.75h-8.29v19Zm52.16,26.81c-2.93,3.41-6.83,4.88-11.7,4.88-8.29,0-15.6-5.36-15.6-14.63,0-8.78,6.83-14.14,17.06-14.14a36.41,36.41,0,0,1,9.75,1.46v-1c0-4.88-2.44-6.83-9.75-6.83a25.33,25.33,0,0,0-12.19,3.41h-.49V375.47c3.41-2,9.26-3.41,15.11-3.41,13.16,0,20,6.34,20,17.06v27.3H466.63Zm-.49-9.75v-3.9a16.28,16.28,0,0,0-7.31-1.46c-4.39,0-6.83,1.46-6.83,4.88s2.44,5.36,6.34,5.36C462.25,408.13,465.17,406.18,466.15,402.77Zm19.5-7.8c0-14.14,9.75-22.91,22.91-22.91a20.94,20.94,0,0,1,12.19,3.41v11.21h-.49a18.14,18.14,0,0,0-9.75-3.41c-6.34,0-11.21,4.39-11.21,11.7s4.88,11.7,11.21,11.7a15.7,15.7,0,0,0,9.75-3.41v11.21c-3.41,2.44-7.31,3.41-12.19,3.41C495.4,417.88,485.65,409.11,485.65,395Zm55.58,2v20H528.55V355.48h12.68v35.1l13.16-17.06H569V374l-15.6,20L569,416.91v.49H554.38Zm57,15.6c-2.93,3.41-6.83,4.88-11.7,4.88-8.29,0-15.6-5.36-15.6-14.63,0-8.78,6.83-14.14,17.06-14.14a36.41,36.41,0,0,1,9.75,1.46v-1c0-4.88-2.44-6.83-9.75-6.83a25.33,25.33,0,0,0-12.19,3.41h-.49V375.47c3.41-2,9.26-3.41,15.11-3.41,13.16,0,20,6.34,20,17.06v27.3H598.26Zm-.49-9.75v-3.9a16.28,16.28,0,0,0-7.31-1.46c-4.39,0-6.83,1.46-6.83,4.88s2.44,5.36,6.34,5.36C593.87,408.13,596.8,406.18,597.77,402.77Zm34.61-22.91c2.44-4.88,5.85-7.8,10.73-7.8a9.73,9.73,0,0,1,4.39,1v12.19H647a18.18,18.18,0,0,0-5.85-1,8.3,8.3,0,0,0-8.29,6.83v25.35H620.2V372.54h12.68v7.31ZM681.62,412c-2.93,3.41-6.83,5.36-12.68,5.36-11.21,0-18-10.24-18-22.91s7.31-22.91,18-22.91c5.85,0,9.75,2,12.68,4.88V354.51H694.3v61.43H681.62Zm-.49-10.24V387.66a9.58,9.58,0,0,0-8.29-4.39c-5.85,0-9.26,3.9-9.26,11.7,0,7.31,3.9,11.7,9.26,11.7A9,9,0,0,0,681.14,401.79ZM73.7,436.89h37.54v7.31H82v19h26.33v7.31H82.48V491h29.25v7.31h-38ZM142.44,454c9.75,0,15.11,6.34,15.11,17.06v27.3h-7.8V471.51c0-5.36-2.93-9.75-8.78-9.75a11.59,11.59,0,0,0-10.73,7.8v28.76H122V454.93h8.29v6.34A13.53,13.53,0,0,1,142.44,454Zm37.05,1H190.7v6.83H179.49v23.4c0,4.88,2.44,6.83,7.31,6.83a7.23,7.23,0,0,0,3.41-.49h.49v6.83a12.23,12.23,0,0,1-4.88,1c-10.24,0-14.14-4.39-14.14-13.16V462.25h-7.31v-6.83h7.31v-11.7H180v11.21Zm37.05,44.36c-12.68,0-21-8.29-21-21.94s7.8-22.91,19.5-22.91,18,8.78,18,21.45v3.9H203.87c1,8.78,6.34,13.16,14.14,13.16a18.28,18.28,0,0,0,12.19-3.9h.49v7.31A40.38,40.38,0,0,1,216.54,499.3Zm-12.68-26.81h21.45c-.49-6.34-3.41-11.21-10.24-11.21C209.23,461.27,205.33,465.66,203.87,472.48Zm46.8-10.73a11.64,11.64,0,0,1,10.73-7.31c2,0,3.41.49,4.39.49v8.29h-.49a12.23,12.23,0,0,0-4.88-1,9.35,9.35,0,0,0-9.26,7.8v28.28h-8.29V454.93h8.29v6.83Zm42.41-7.8c12.68,0,19.5,10.73,19.5,22.43,0,12.19-6.83,22.43-19.5,22.43A16.26,16.26,0,0,1,280.89,493v21.45H272.6V454.93h8.29v4.88A16.26,16.26,0,0,1,293.08,454Zm-1.46,38c7.8,0,12.68-6.34,12.68-15.11s-4.88-15.11-12.68-15.11c-4.39,0-8.29,2.44-10.73,6.83v16.58C283.33,489.06,287.23,492,291.62,492Zm39-30.23a11.64,11.64,0,0,1,10.73-7.31c2,0,3.41.49,4.39.49v8.29h-1c-1-1-2.93-1-4.88-1a9.35,9.35,0,0,0-9.26,7.8v28.28h-8.29V454.93h8.29Zm26.33-24.38c2.93,0,5.36,2.44,5.36,4.88,0,2.93-2.44,4.88-5.36,4.88s-5.36-2.44-5.36-4.88S354,437.38,356.94,437.38ZM353,454.93h8.29v43.39H353Zm37.05,18c6.34,2,13.16,4.39,13.16,12.68,0,8.78-7.31,13.16-16.58,13.16-5.85,0-11.21-1.46-14.63-3.9v-7.8h.49c3.41,3.41,8.78,4.88,14.14,4.88,4.39,0,8.78-2,8.78-5.36,0-3.9-3.41-4.88-10.24-6.83-5.85-2-12.68-4.39-12.68-12.19,0-8.29,6.83-13.16,15.6-13.16,4.88,0,9.75,1,13.16,3.41v7.8h-.49a19.09,19.09,0,0,0-12.68-4.39c-4.88,0-7.8,2.44-7.8,5.36C379.86,469.56,382.78,470.53,390.09,473Zm41,26.33c-12.68,0-21-8.29-21-21.94s7.8-22.91,19.5-22.91,18,8.78,18,21.45v3.9H418.37c1,8.78,6.34,13.16,14.14,13.16a18.28,18.28,0,0,0,12.19-3.9h.49v7.31C440.79,497.83,436.41,499.3,431,499.3Zm-12.68-26.81h21.45c-.49-6.34-3.41-11.21-10.24-11.21C423.24,461.27,419.34,465.66,418.37,472.48Z" transform="translate(-73.7 -253.59)"/><path d="M73.7,315H286.25V253.59H73.7Zm13.16-47.78H272.6v34.61H86.86Z" transform="translate(-73.7 -253.59)" style="fill:#01a982"/></svg>