<svg xmlns="http://www.w3.org/2000/svg" xmlns:xlink="http://www.w3.org/1999/xlink" viewBox="0 0 200 100"><defs><style>.cls-1{fill:none;}.cls-2{clip-path:url(#clip-path);}.cls-3{fill:#0c9ed9;}</style><clipPath id="clip-path"><rect class="cls-1" x="2.82" y="36.67" width="184.74" height="26.65"/></clipPath></defs><g id="Lumen"><g id="Lumen-logo"><g id="Group_4657" data-name="Group 4657"><g class="cls-2"><g id="Group_4656" data-name="Group 4656"><path id="Path_1127" data-name="Path 1127" d="M2.82,38.62V60.71c0,1.34.78,1.95,2.28,1.95H26c1.45,0,2.28-.61,2.28-1.95s-.83-1.94-2.28-1.94H8c-.72,0-1-.33-1-1V38.62A1.94,1.94,0,0,0,5.1,36.67H4.93a2,2,0,0,0-2.11,1.84v.11"/><path id="Path_1128" data-name="Path 1128" d="M38.7,53V38.62a2.12,2.12,0,0,0-4.22,0V53.36c0,8.94,5.55,10,15.16,10s15.17-1,15.17-10V38.62a2.12,2.12,0,0,0-4.22,0V53c0,7.28-3.89,6.3-11,6.3S38.7,60.14,38.7,53"/><path id="Path_1129" data-name="Path 1129" d="M106,43.17V61.05a1.94,1.94,0,0,0,1.93,2h.18a1.91,1.91,0,0,0,2.11-1.94V39.56a2.73,2.73,0,0,0-2.58-2.88h-.09c-1.46,0-2.1.83-3.5,2.11L93.24,49.42h-.06L82.41,38.84C81,37.42,80,36.67,78.74,36.67A3,3,0,0,0,76,39.56V61.05A1.94,1.94,0,0,0,78,63h.17a1.91,1.91,0,0,0,2.11-1.94V43.12h.23l10.27,9.74c.93.91,1.64,1.61,2.39,1.61.93,0,1.41-.73,2.44-1.61l10.22-9.69Z"/><path id="Path_1130" data-name="Path 1130" class="cls-3" d="M147.18,39c0-1.28-.78-2-2.28-2H123.8c-1.5,0-2.28.73-2.28,2v1.93l23.44,0c1.45,0,2.23-.67,2.23-1.89"/><path id="Path_1131" data-name="Path 1131" d="M121.52,48V60.71c0,1.34.77,1.95,2.27,1.95h21.33c1.45,0,2.22-.61,2.22-1.95s-.77-1.94-2.22-1.94H126.74c-.72,0-1-.33-1-1V51.92h13.89c1.5,0,2.27-.67,2.27-2S141.13,48,139.63,48Z"/><path id="Path_1132" data-name="Path 1132" d="M187.56,60.49V38.62a2,2,0,0,0-2-1.95h-.11a1.94,1.94,0,0,0-2.1,1.77,1.09,1.09,0,0,0,0,.18V56.33L162.45,38.78c-1.43-1.2-2.23-2.11-3.61-2.11s-2.5,1-2.5,2.89V61.05a2,2,0,0,0,2,2h.1a1.94,1.94,0,0,0,2.11-1.76c0-.06,0-.12,0-.18V43l20.66,17.76C182.61,61.89,183.57,63,185,63a2.46,2.46,0,0,0,2.55-2.38.49.49,0,0,0,0-.12"/></g></g></g><g id="Group_4660" data-name="Group 4660"><g id="Group_4659" data-name="Group 4659"><g id="Group_4658" data-name="Group 4658"><path id="Path_1133" data-name="Path 1133" d="M190.51,40.22v0a3.34,3.34,0,0,1,6.67-.15v.15a3.34,3.34,0,1,1-6.67.14A.24.24,0,0,1,190.51,40.22Zm6.29,0v0a3,3,0,1,0-5.91-.1v.14a3,3,0,0,0,5.91.1Zm-4.26-1.77h1.53c.75,0,1.31.37,1.31,1.08a1,1,0,0,1-.79,1l.9,1.29h-.78l-.81-1.17h-.71v1.17h-.66ZM194,40.12c.44,0,.69-.23.69-.56S194.46,39,194,39h-.83v1.11Z"/></g></g></g></g></g></svg>