<svg clip-rule="evenodd" fill-rule="evenodd" stroke-linejoin="round" stroke-miterlimit="2" viewBox="0 0 560 400" xmlns="http://www.w3.org/2000/svg"><g transform="matrix(1.38037 0 0 1.38037 39.816 155)"><path d="m342.5 9.7c3.1 0 5.5 2.4 5.5 5.5s-2.4 5.5-5.5 5.5-5.5-2.4-5.5-5.5 2.3-5.5 5.5-5.5zm0 10.3c2.7 0 4.7-2 4.7-4.8s-2-4.8-4.7-4.8-4.7 2-4.7 4.8 2 4.8 4.7 4.8zm2.3-5.6c0 .6-.4 1.2-1.1 1.4l1.1 2.1h-1.2l-.9-1.8h-1.2v1.8h-1.1v-5.4h2.3c1.3 0 2.1.7 2.1 1.7zm-3.3-.9v1.7h1.2c.7 0 1-.3 1-.8v-.1c0-.6-.3-.8-1-.8zm-14.9 50.7v-2.3c1.4.7 2.8 1.1 4 1.1.9 0 1.4-.2 1.4-.6s-.3-.5-2.1-.8c-2-.3-3.3-.9-3.3-2.6 0-1.6 1.4-2.8 4.1-2.8 1.1 0 2.2.2 3.3.7v2.3c-1-.6-2.3-.9-3.4-.9-1 0-1.3.2-1.3.6 0 .5.6.5 2.1.8 2 .3 3.3.9 3.3 2.7 0 1.4-1 2.8-4 2.8-1.7-.2-2.8-.5-4.1-1zm-10.8-7.9h2.4v3.1h1l2.5-3.1h2.8l-3.2 4 3.4 4.4h-2.9l-2.5-3.2h-1v3.2h-2.5zm-11.7 0h5c2.2 0 3.3 1.1 3.3 3 0 1.3-.6 2.3-1.6 2.7l2 2.7h-2.9l-1.6-2.2h-1.7v2.2h-2.5zm4.6 4.3c.8 0 1.1-.5 1.1-1.1s-.3-1.1-1.1-1.1h-2.1v2.2zm-16.9-.1c0-2.7 1.9-4.5 4.8-4.5s4.8 1.7 4.8 4.5c0 2.7-1.9 4.5-4.8 4.5s-4.8-1.7-4.8-4.5zm7.1 0c0-1.5-.8-2.3-2.3-2.3s-2.3.9-2.3 2.3c0 1.5.8 2.3 2.3 2.3 1.5.1 2.3-.8 2.3-2.3zm-23.1-4.2h2.7l1.4 5.8h.1l1.8-5.8h2.5l1.7 5.8h.1l1.3-5.8h2.6l-2.2 8.4h-3.3l-1.5-5.1h-.1l-1.6 5.1h-3.3zm-7.4 2.2h-3l.1-2.2h8.2l.1 2.2h-2.9v6.2h-2.5zm-12.8-2.2h7.3l.1 2h-4.9v1.2h3.9v1.9h-3.9v1.3h5.1l-.1 2h-7.5zm-11.9 0h2.6l3.6 4.8v-4.8h2.4v8.4h-2.5l-3.7-4.9v4.9h-2.4zm73.7-44.6c10.4 0 17.8 7.2 17.8 17.2v1.2c0 10-7.4 17.2-17.8 17.2s-17.8-7.2-17.8-17.2v-1.2c0-10 7.4-17.2 17.8-17.2zm7.3 18.1v-.6c0-5.2-2.7-9-7.3-9s-7.3 3.7-7.3 9v.6c0 5.2 2.7 9 7.3 9s7.3-3.7 7.3-9zm-35.1 9c1.5 0 4.4-.7 6.5-1.8l2.9 7.2c-3.5 2-7.8 3.1-11.4 3.1-8.2 0-12.3-4.1-12.3-12.1v-29.3l10.2-1.5v7.8h12v7.9h-12v14.1c0 3.1 1.1 4.6 4.1 4.6zm-20.1-38.8v46.7h-10.2v-46.7zm-31.7 11.7c10.1 0 15.6 5 15.7 14.6v20.3h-9l-.7-4.5c-2.3 3.3-6.1 5.1-10.4 5.1-6.6 0-11.3-4.4-11.3-10.1v-.4c0-5.9 4.1-10.2 14-11.3l4-.4c2.3-.2 3.2-.8 3.2-2v-.1c0-1.7-1.6-3-5-3-3 0-7.2 1.2-12.2 4l-3.2-7.9c5.7-3.1 10.4-4.3 14.9-4.3zm-.9 27.8c3.9 0 6.3-2.2 6.3-6.1v-2.6c-1.3.8-2.7 1.2-5 1.5l-1.6.2c-3.6.6-4.6 1.8-4.6 3.6v.1c0 2 1.6 3.3 4.9 3.3zm-35-27.8c10.4 0 17.8 7.2 17.8 17.2v1.2c0 10-7.4 17.2-17.8 17.2s-17.8-7.2-17.8-17.2v-1.2c0-10 7.4-17.2 17.8-17.2zm7.3 18.1v-.6c0-5.2-2.7-9-7.3-9s-7.3 3.7-7.3 9v.6c0 5.2 2.7 9 7.3 9s7.3-3.7 7.3-9zm-29.7-29.8v46.7h-10.2v-46.7zm-31.6 11.7c10 0 15.6 5 15.7 14.6v20.3h-9l-.7-4.5c-2.3 3.3-6.1 5.1-10.4 5.1-6.6 0-11.3-4.4-11.3-10.1v-.4c0-5.9 4.1-10.2 14-11.3l4-.4c2.3-.2 3.2-.8 3.2-2v-.1c0-1.7-1.6-3-5-3-3 0-7.2 1.2-12.2 4l-3.2-7.9c5.7-3.1 10.4-4.3 14.9-4.3zm-.9 27.8c3.8 0 6.3-2.2 6.3-6.1v-2.6c-1.3.8-2.7 1.2-5 1.5l-1.6.2c-3.6.6-4.6 1.8-4.6 3.6v.1c0 2 1.6 3.3 4.9 3.3zm-32.1-27.8c8.2 0 14.9 7.2 14.8 17.2v1.2c0 10-6.6 17.2-14.8 17.2-4.4 0-8.1-1.9-10-4.9v16h-10.2v-46.1h9l.8 4.7c2-3.2 5.8-5.3 10.4-5.3zm4.3 18.1v-.6c0-5.2-2.7-9-7.3-9s-7.3 3.7-7.3 9v.6c0 5.2 2.7 9 7.3 9s7.3-3.7 7.3-9z" fill="#141414"/><g fill="#fa582d" fill-rule="nonzero"><path d="m63.3 11.5-11.5-11.5-11.5 11.5 5.7 5.7-28.8 28.9 11.5 11.5 11.5-11.5-5.7-5.7z"/><path d="m28.8 0-28.8 28.8 11.5 11.5 28.8-28.8z"/><path d="m69.1 17.2-28.9 28.9 11.5 11.5 28.8-28.8z"/></g></g></svg>