<svg clip-rule="evenodd" fill-rule="evenodd" stroke-linejoin="round" stroke-miterlimit="2" viewBox="0 0 560 400" xmlns="http://www.w3.org/2000/svg"><g transform="matrix(1.89474 0 0 1.89474 99.9998 154.526)"><path d="m68.894 24.405c.49.281.912.668 1.233 1.214.338.493.507 1.161.507 2.023 0 .686-.119 1.302-.372 1.848-.253.545-.591 1.02-1.013 1.39-.422.369-.929.668-1.503.862s-1.199.299-1.857.299c-.879 0-1.706-.176-2.499-.493-.794-.334-1.419-.827-1.875-1.495l1.52-1.373c.338.528.76.915 1.283 1.162.524.246 1.064.369 1.621.369.304 0 .625-.053.946-.158.321-.106.608-.264.878-.458.253-.193.473-.439.642-.739.169-.281.253-.633.253-1.02 0-.563-.169-.985-.507-1.267-.337-.282-.76-.528-1.249-.721-.49-.194-1.03-.388-1.621-.563-.591-.176-1.132-.44-1.621-.757-.507-.334-.912-.757-1.25-1.302-.338-.546-.506-1.267-.506-2.2 0-.422.101-.862.27-1.337.185-.457.456-.897.827-1.284.372-.405.844-.722 1.435-.986.574-.263 1.284-.387 2.111-.387.743 0 1.469.106 2.145.317.692.211 1.283.651 1.807 1.302l-1.503 1.425c-.22-.387-.558-.686-.98-.915-.422-.211-.912-.334-1.452-.334-.506 0-.946.07-1.283.211-.355.141-.625.317-.828.546-.202.228-.354.457-.439.721-.084.246-.118.493-.118.704 0 .598.169 1.073.507 1.39.337.334.759.581 1.249.792s1.03.387 1.621.545c.591.159 1.132.387 1.621.669zm13.695.844v4.575h7.311v1.812h-9.169v-14.252h8.832v1.813h-6.974v4.24h6.484v1.812zm21.58-7.865h1.672l5.859 14.252h-2.161l-1.368-3.519h-6.518l-1.351 3.519h-2.161zm-1.858 9.044h5.168l-2.55-6.545h-.034zm25.295-.95v-1.777h4.881v7.02c-.321.212-.71.405-1.132.564-.422.158-.861.281-1.317.404-.456.106-.912.194-1.385.247-.456.052-.911.087-1.317.087-1.165 0-2.195-.193-3.107-.598-.912-.404-1.671-.95-2.296-1.636s-1.115-1.496-1.436-2.393c-.32-.897-.489-1.865-.489-2.868 0-1.056.169-2.041.523-2.956.355-.915.845-1.707 1.469-2.375.625-.669 1.368-1.197 2.246-1.584s1.841-.581 2.888-.581c1.266 0 2.296.159 3.09.493.793.334 1.469.774 2.009 1.355l-1.317 1.478c-.574-.563-1.182-.95-1.807-1.179-.641-.229-1.3-.334-1.992-.334-.794 0-1.503.158-2.128.457s-1.165.704-1.621 1.214-.794 1.109-1.047 1.795-.371 1.425-.371 2.199c0 .81.135 1.566.405 2.253.27.686.642 1.284 1.114 1.794.49.511 1.047.915 1.689 1.197.642.299 1.351.44 2.111.44.641 0 1.266-.071 1.857-.194s1.098-.299 1.503-.545v-3.977zm19.892-8.094h1.672l5.859 14.252h-2.161l-1.368-3.519h-6.518l-1.351 3.519h-2.161zm-1.857 9.044h5.167l-2.55-6.545h-.034zm15.197-7.231v-1.813h10.655v1.813h-4.407v12.439h-1.841v-12.439zm21.833 6.052v4.575h7.329v1.812h-9.186v-14.252h8.831v1.813h-6.974v4.24h6.485v1.812z"/><path d="m24.212 48c-.574-2.252-1.132-4.469-1.672-6.633.591-.299 1.081-.528 1.722-.863 2.668-1.178 5.252-2.551 7.65-4.258 3.005-2.129 5.809-4.522 8.257-7.337 1.925-2.199 3.512-4.645 4.424-7.513.608-1.9.912-3.853.642-5.859-.22-1.672-.811-3.185-1.723-4.575-1.097-1.672-2.516-2.956-4.255-3.871-2.178-1.144-4.491-1.566-6.889-1.496-2.128.088-4.188.563-6.181 1.338-3.681 1.407-7.058 3.413-10.3 5.683-.946.669-1.824 1.425-2.567 2.322-.405.493-.726 1.039-.861 1.69-.219 1.091.372 1.935 1.452 1.988.743.035 1.419-.264 2.077-.581 2.044-1.003 3.884-2.358 5.775-3.589 1.571-1.021 3.141-2.006 4.864-2.727 1.688-.704 3.444-1.091 5.268-.775 1.992.352 3.597 1.32 4.576 3.238.675 1.337.743 2.762.371 4.205-.405 1.654-1.317 2.991-2.414 4.205-1.486 1.69-3.209 3.097-5.117 4.258-1.992 1.215-3.968 2.464-6.011 3.59-2.398 1.302-4.931 2.235-7.531 3.026-2.178.651-4.39.95-6.653.739-1.891-.176-3.681-.756-5.252-1.882-1.418-1.038-2.465-2.393-3.107-4.082-.979-2.605-.928-5.261-.304-7.936.71-3.026 2.179-5.63 3.985-8.059 1.385-1.865 2.989-3.501 4.695-4.997 2.414-2.129 4.998-4.047 7.75-5.665.929-.546 1.892-1.074 2.77-1.584.303.669.608 1.302.911 1.953-.827.458-1.637.897-2.431 1.355-3.445 1.988-6.586 4.399-9.389 7.284-1.519 1.566-2.82 3.326-3.782 5.314-1.03 2.076-1.57 4.293-1.334 6.651.27 2.569 1.418 4.557 3.698 5.736 1.351.704 2.803.915 4.306.88 2.06-.053 4.002-.651 5.927-1.372 2.854-1.074 5.521-2.552 8.122-4.188 1.52-.95 3.039-1.936 4.323-3.22.675-.686 1.351-1.373 1.705-2.34.625-1.689-.253-3.15-1.992-3.326-.946-.088-1.807.229-2.635.634-2.212 1.073-4.204 2.533-6.264 3.853-1.571 1.021-3.175 2.006-4.897 2.71-1.199.492-2.449.792-3.749.633-2.229-.264-3.63-2.111-3.394-4.434.186-1.83 1.047-3.325 2.195-4.663 1.284-1.478 2.77-2.692 4.374-3.747 2.465-1.637 4.947-3.203 7.632-4.452 3.09-1.443 6.265-2.587 9.676-2.903 2.465-.229 4.897-.088 7.311.563 2.128.58 4.087 1.513 5.843 2.868s3.158 3.026 4.221 4.997c.963 1.795 1.503 3.713 1.672 5.754.169 2.146-.068 4.258-.675 6.299-.575 2.006-1.368 3.924-2.432 5.701-1.486 2.48-3.242 4.733-5.285 6.756-2.077 2.059-4.171 4.082-6.535 5.772-3.073 2.217-6.282 4.169-9.743 5.665-.929.44-1.841.845-2.82 1.267z" fill="#6abf4b"/></g></svg>