<?xml version="1.0" encoding="utf-8"?>
<!-- Generator: Adobe Illustrator 24.0.2, SVG Export Plug-In . SVG Version: 6.00 Build 0)  -->
<svg version="1.1" id="Layer_1" xmlns="http://www.w3.org/2000/svg" xmlns:xlink="http://www.w3.org/1999/xlink" x="0px" y="0px"
	 viewBox="0 0 216 144" style="enable-background:new 0 0 216 144;" xml:space="preserve">
<style type="text/css">
	.st0{fill:#ED2224;}
	.st1{fill:#010101;}
</style>
<g>
	<g>
		<path class="st0" d="M202.36,50.17c1.52-0.1,3.03-0.07,4.55-0.05c-4.55,9.5-8.94,19.08-13.4,28.63c-1.23,0.02-2.47,0.01-3.7-0.01
			c-2.05-4.81-4.42-9.48-6.56-14.25c1.48-0.03,2.96-0.04,4.44,0c1.28,2.94,2.79,5.78,3.96,8.76
			C195.23,65.56,198.91,57.92,202.36,50.17z"/>
	</g>
	<g>
		<path class="st1" d="M87.99,54.25c2.93,0.03,5.86,0.02,8.8,0c-0.04,2.61-0.03,5.23-0.02,7.84c-2.94-0.04-5.88-0.01-8.81-0.02
			C87.99,59.47,87.95,56.86,87.99,54.25z"/>
		<g>
			<path class="st1" d="M43.74,65.46c5.99-3.4,14.69-2.23,18.74,3.62c2.48,3.47,3.18,7.86,3.16,12.04
				c-6.88,0.06-13.75-0.01-20.63,0.03c0.31,2.13,1.23,4.36,3.19,5.47c2.78,1.63,7.18,1.16,8.59-2.07c2.82-0.09,5.65-0.07,8.47,0.01
				c-0.89,3.25-3.23,5.98-6.21,7.52c-3.21,1.75-7.03,2.1-10.59,1.49c-3.74-0.6-7.25-2.72-9.37-5.89c-2.3-3.35-2.93-7.63-2.39-11.6
				C37.26,71.71,39.85,67.59,43.74,65.46z M48.42,70.43c-1.96,0.94-2.93,3.05-3.36,5.07c3.91-0.02,7.82-0.01,11.73,0
				c-0.25-1.57-0.78-3.19-1.99-4.29C53.13,69.59,50.45,69.55,48.42,70.43z"/>
		</g>
		<g>
			<path class="st1" d="M135.86,63.94c4.72-0.85,9.95,0.14,13.58,3.43c6.2,5.5,6.46,16.18,0.71,22.09
				c-4.54,4.74-12.17,5.62-18.01,2.94c-4.51-2.04-7.59-6.65-8.11-11.52c-0.22-2.82-0.1-5.76,1.08-8.38
				C126.88,68.01,131.14,64.73,135.86,63.94z M136.87,70.45c-2.49,0.87-3.62,3.57-3.99,5.99c-0.29,3.05-0.25,6.47,1.74,8.99
				c2.11,2.75,6.78,2.68,8.9-0.03c1.78-2.2,2.02-5.2,1.85-7.92c-0.14-2.39-0.95-4.96-2.97-6.42
				C140.81,69.97,138.67,69.8,136.87,70.45z"/>
		</g>
		<path class="st1" d="M167.26,65.58c2.9-2.29,7.07-2.53,10.42-1.16c2.39,1.03,4.2,3.15,5.02,5.6c0.94,2.52,0.66,5.24,0.7,7.86
			c0.02,5.03-0.04,10.05,0.03,15.08c-2.93,0.05-5.85-0.01-8.78,0.03c-0.01-5.75,0-11.51-0.01-17.26c-0.01-1.5-0.55-3.09-1.8-4
			c-1.86-1.28-4.61-1.03-6.21,0.57c-1.26,1.28-1.83,3.12-1.8,4.89c-0.01,5.28,0.01,10.55-0.01,15.82c-2.89-0.05-5.78,0-8.67-0.03
			c0-9.51,0.02-19.01-0.01-28.52c2.82,0.03,5.65-0.03,8.47,0.04c-0.03,1.31-0.04,2.62-0.07,3.94
			C165.44,67.46,166.18,66.35,167.26,65.58z"/>
		<path class="st1" d="M9.09,64.47c3.03-0.01,6.07-0.01,9.1,0c1.82,6.13,3.79,12.22,5.52,18.38c2.1-6.05,3.73-12.26,5.7-18.36
			c2.94-0.05,5.87-0.01,8.81-0.02c-3.35,9.49-6.64,19.01-9.94,28.52c-3.04,0.02-6.08-0.04-9.12,0.04
			C15.7,83.54,12.61,73.93,9.09,64.47z"/>
		<path class="st1" d="M67.63,64.47c2.8-0.01,5.6,0,8.41-0.01c-0.03,1.6-0.01,3.2-0.09,4.8c0.74-0.8,1.24-1.78,2-2.57
			c1.89-2.06,4.97-2.93,7.67-2.21c-0.03,2.51-0.03,5.02,0,7.53c-2.16-0.25-4.54-0.16-6.38,1.15c-1.96,1.38-2.83,3.86-2.81,6.18
			c-0.02,4.54-0.01,9.09,0,13.63C73.5,93,70.56,92.96,67.63,93C67.66,83.49,67.66,73.98,67.63,64.47z"/>
		<path class="st1" d="M87.95,64.48c2.94-0.04,5.89,0,8.83-0.02c-0.05,9.51-0.02,19.03-0.02,28.54c-2.94-0.03-5.88-0.01-8.81-0.01
			C87.98,83.49,87.98,73.98,87.95,64.48z"/>
		<path class="st1" d="M99.16,64.45c7.94,0.04,15.89-0.01,23.83,0.03c-0.08,2.18,0,4.36-0.04,6.53c-0.27,0.55-0.75,0.96-1.14,1.43
			c-4.09,4.52-8.09,9.14-12.21,13.64c4.67,0.09,9.35,0.01,14.02,0.04c-0.01,2.3,0,4.59-0.01,6.88c-8.15-0.04-16.31-0.03-24.46,0
			c-0.01-2.2,0.01-4.41-0.01-6.62c4.26-4.79,8.53-9.57,12.85-14.3c0.12-0.25,0.64-0.49,0.38-0.81c-4.39,0.13-8.79,0-13.19,0.07
			C99.14,69.05,99.17,66.75,99.16,64.45z"/>
	</g>
</g>
</svg>
