<svg xmlns="http://www.w3.org/2000/svg" fill="none" viewBox="0 0 660 661" height="661" width="660">
<path fill="#D97757" d="M502.999 117.326C501.316 119.517 498.927 121.094 497.957 124.13C497.759 125.444 502.174 132.625 503.178 134.367C506.511 140.201 509.771 145.356 513.256 151.362C522.086 166.575 530.97 183.352 540.58 197.786C546.394 206.525 550.236 217.006 557.568 225.328C562.934 227.229 569.56 229.315 574.431 232.219C577.025 233.763 578.404 236.271 580.523 238.231C581.335 238.977 589.545 249.814 590.066 251.524C590.964 254.487 590.496 256.084 590.344 258.823C589.948 265.727 588.199 272.914 585.037 278.874C584.522 279.831 578.061 288.272 577.309 288.853C577.045 289.058 575.177 289.447 574.273 290.246C573.368 291.038 572.775 292.675 571.54 293.348C566.973 295.829 559.066 296.054 555.324 297.968C554.928 298.172 550.064 304.231 549.714 304.858C546.408 310.653 545.398 317.682 542.883 322.592C540.138 327.965 538.725 332.189 536.362 337.733C528.548 356.015 516.595 372.977 509.646 391.807C508.702 394.341 509.131 400.149 510.556 402.518C512.992 406.551 515.817 406.445 517.579 412.61C519.493 419.263 518.443 420.728 517.995 426.807C517.737 430.305 517.77 433.763 516.939 437.347C513.051 453.926 495.165 465.205 478.414 465.014C469.452 464.915 454.186 461.14 448.563 453.49C437.31 438.178 433.125 420.338 444.108 403.469C444.504 402.868 446.536 399.812 446.517 399.529C446.121 395.938 443.579 393.298 442.18 390.15C441.804 389.312 441.903 387.411 441.468 386.685C441.342 386.48 437.177 378.428 436.749 377.366C436.537 376.831 431.178 368.297 430.617 367.578C430.056 366.859 428.234 366.04 427.819 365.473C426.888 364.199 426.043 360.477 425.278 359.064C424.334 357.322 420.849 353.315 420.381 351.883C418.671 346.656 418.896 348.431 416.262 344.34C409.543 333.885 403.887 321.477 396.621 311.9C393.552 307.855 393.703 306.449 391.301 302.245C390.139 300.219 387.994 299.077 387.651 296.509C387.037 296.694 365.871 296.087 357.139 291.909C356.446 291.572 355.602 289.995 353.886 290.259C353.886 290.259 350.539 285.758 349.985 284.959C349.695 284.537 346.962 276.373 345.913 274.307C345.662 273.812 341.775 270.604 341.372 270.518C340.712 270.373 326.126 270.03 319.453 269.456C315.724 269.132 309.336 270.558 305.296 270.749C304.108 270.802 302.841 270.01 301.944 270.063C301.31 270.103 287.127 270.67 281.503 270.697C274.237 270.743 266.977 271.317 259.901 271.106C256.997 271.02 251.355 269.766 248.437 270.149C238.168 271.475 233.634 279.97 226.763 286.187C226.671 286.273 198.746 298.357 187.981 295.018C182.305 293.255 176.128 288.372 172.049 284.24C161.086 273.112 163.132 249.471 169.897 236.317C173.079 230.12 173.831 229.909 179.441 226.721C181.474 225.559 186.371 222.16 188.305 221.388C194.892 218.774 200.125 220.754 207.036 215.118C208.89 213.607 217.371 202.413 218.691 200.116C220.005 197.819 221.199 194.698 222.849 191.774C234.749 170.601 248.497 150.662 260.588 129.536C261.75 127.496 263.023 128.566 261.895 125.041C260.654 121.174 258.615 118.982 257.493 114.032C253.988 98.4367 256.516 86.3521 266.693 74.0365C270.64 69.2581 272.415 68.7367 277.966 67.3903C278.764 67.1989 304.425 69.0799 309.692 71.1721C315.229 73.3699 320.714 77.4223 323.387 82.4911C324.152 83.9365 323.948 87.1837 326.991 87.5599C330.819 87.0913 334.818 85.9891 338.646 85.6063C351.609 84.3127 363.99 86.9131 376.972 86.2993C382.516 86.0419 387.651 85.1047 393.248 85.0387C395.947 85.0057 399.709 85.8769 402.369 85.4677C409.18 84.4315 415.14 82.8079 422.427 82.9795C427.126 83.0851 431.026 85.5007 435.613 81.5671C437.032 80.3527 438.359 75.9901 439.738 74.4589C440.26 73.8781 446.299 68.2153 446.728 67.9909C447.678 67.4959 448.859 67.7071 449.909 67.1131C455.235 64.0903 461.479 58.5199 467.927 58.9093C476.5 59.4307 494.281 68.9017 500.439 75.0661C511.223 85.8439 512.187 105.347 502.96 117.352L502.986 117.339L502.999 117.326ZM436.762 109.696C435.957 108.277 435.891 107.71 435.23 106.456C434.881 105.789 430.465 101.314 429.759 101.063C429.416 100.938 423.232 100.793 422.486 100.832C418.229 101.024 413.807 101.836 409.616 102.245C396.126 103.565 381.513 103.961 367.878 104.205C355.338 104.429 342.811 103.835 330.423 104.264C322.423 108.884 323.611 118.619 317.223 124.817C316.49 125.53 314.814 125.741 314.385 127.384C312.688 133.945 321.829 147.184 325.453 152.774C333.426 176.409 350.83 193.628 363.436 213.917C364.333 215.362 364.914 217.844 366.03 219.54C366.742 220.622 368.656 221.665 368.927 223.223C373.785 221.078 379.546 218.563 384.906 218.807C389.182 219.005 393.723 221.197 398.323 220.319C398.323 220.319 404.574 206.828 407.583 200.446C412.447 190.137 419.331 180.435 425.542 170.911C431.845 161.236 434.379 155.797 437.943 145C438.801 142.406 442.042 138.202 442.227 137.621C442.774 135.892 442.867 132.453 443.811 130.4C443.949 130.103 444.444 122.223 444.055 121.378C443.362 119.88 441.362 118.329 440.365 116.725C438.986 114.501 437.864 111.617 436.768 109.683H436.755L436.762 109.696ZM484.302 133.436C481.695 131.258 480.546 133.192 477.919 133.337C475.293 133.483 471.128 132.816 468.376 133.351C466.666 133.681 463.465 137.264 462.561 138.782C460.113 142.874 457.374 149.798 454.384 153.507C453.328 154.82 451.803 155.461 450.833 156.622C440.379 169.149 437.475 182.078 431.251 196.592C429.706 200.202 428.261 203.469 426.657 206.993C423.773 213.382 421.555 217.547 418.163 223.493C417.793 224.14 415.312 229.024 415.266 229.348C415.167 230.014 416.407 234.806 416.764 235.598C417.298 236.766 418.816 237.967 419.443 239.175C420.776 241.729 423.04 248.111 425.733 249.161C426.697 249.537 433.376 249.709 435 249.755C454.437 250.29 475.2 250.732 494.644 250.316C498.967 250.223 511.381 250.157 515.051 249.247C515.493 249.141 520.199 242.805 521.367 241.267C522.819 239.327 528.766 234.634 529.129 233.968C529.564 233.162 533.148 227.222 532.6 224.919C529.538 220.741 528.145 214.471 525.684 210.241C525.05 209.152 521.572 205.957 520.707 204.67C519.07 202.235 517.671 197.06 516.239 194.427C511.975 186.573 506.412 177.815 502.551 169.123C499.633 162.562 496.571 157.025 493.377 150.418C492.987 149.606 490.836 146.597 490.149 145.323C488.625 142.498 487.047 135.786 484.295 133.483L484.308 133.45L484.302 133.436ZM296.07 139.007C291.859 135.839 292.974 136.875 288.262 136.644C285.417 136.505 285.364 135.68 281.761 136.875C276.738 138.538 278.012 139.594 275.511 142.591C263.254 157.269 254.727 173.479 246.523 190.764C243.54 197.054 240.379 202.037 236.26 207.165C234.399 209.482 231.852 212.511 230.037 215.21C227.892 218.385 223.278 225.183 229.212 226.556C229.212 226.556 235.567 230.522 236.742 232.562C237.25 233.446 239.197 236.159 239.91 237.307C242.511 241.511 242.676 247.055 244.979 250.567C245.929 252.012 247.197 252.665 248.253 253.959C251.724 253.53 255.13 254.269 258.615 254.48C268.237 255.048 277.583 254.216 287.325 254.091C293.185 254.025 299.416 254.626 305.217 253.51C306.286 253.306 312.695 253.471 314.081 253.418C314.985 253.378 316.431 252.415 317.83 252.362C321.579 252.217 325.512 252.646 329.07 252.791C332.627 252.936 335.749 251.537 337.94 251.662C339.94 251.774 339.762 253.537 342.633 251.715C345.385 249.966 348.018 244.29 348.784 241.214C350.816 233.044 339.267 218.55 335.617 210.901C330.753 200.697 325.908 185.623 319.915 176.633C315.797 170.456 310.015 164.12 306.676 157.361C303.336 150.603 302.716 144.003 296.089 139.007L296.076 139.02L296.07 139.007ZM529.36 288.635C524.951 284.88 521.189 282.332 517.836 277.046C516.747 275.33 516.509 272.485 514.661 270.644C510.193 266.202 507.223 268.096 502.181 267.733C489.885 266.855 476.745 268.281 464.204 268.182C460.423 268.149 456.812 268.545 453.394 268.525C445.533 268.486 434.069 264.776 426.915 267.581C419.76 270.386 421.014 273.561 417.074 278.155C415.464 280.029 412.698 282.544 410.824 284.418C408.296 286.933 405.663 287.21 405.986 291.262C406.448 297.116 411.933 303.149 415.384 307.723C422.77 317.51 429.997 328.031 435.884 338.875C438.821 344.287 440.313 349.204 443.217 354.451C444.787 357.295 447.289 360.199 448.912 362.918C451.552 367.347 460.099 384.052 464.495 385.246C471.154 387.055 476.91 384.982 483.773 385.576C486.493 385.807 489.872 386.362 492.796 385.774C493.555 385.622 496.452 384.19 496.96 383.689C498.822 381.821 502.874 372.37 504.319 369.433C508.002 361.942 510.411 353.744 513.546 345.725C517.513 335.608 521.737 325.206 526.231 315.102C527.736 311.709 531.861 305.479 532.68 302.396C533.498 299.321 531.544 294.958 532.831 291.757C532.779 291.566 529.822 289.909 529.452 289.586C529.056 289.243 529.366 288.629 529.366 288.629L529.36 288.635Z"></path>
<path fill="#D97757" d="M312.365 387.484C314.002 388.995 313.691 389.728 315.097 391.18C316.642 392.77 320.278 394.202 321.961 395.536C322.404 395.885 323.387 399.449 323.717 400.063C325.829 404.096 329.532 409.145 330.838 413.349C332.145 417.553 331.096 431.763 330.02 436.528C329.967 436.772 327.571 441.624 325.255 445.188C324.753 445.96 321.843 449.662 321.493 450.171C319.282 453.358 320.153 451.893 317.539 454.216C316.78 454.889 315.421 457.081 315.256 457.18C314.688 457.536 311.21 460.084 310.834 460.328C306.88 462.889 299.211 465.727 294.512 465.885C292.532 465.951 289.298 465.483 287.344 465.126C284.79 464.658 282.487 463.331 279.708 463.344C279.708 463.344 274.336 460.42 272.085 458.79C270.693 457.78 268.858 455.345 267.459 454.355C266.726 453.833 265.234 453.702 264.304 453.127C261.763 451.543 262.231 448.639 260.786 446.395C259.981 445.148 257.644 443.109 256.846 441.861C250.305 431.526 252.147 416.708 256.951 405.508C257.539 404.129 259.103 403.344 258.43 401.766C259.703 402.631 274.62 387.22 283.186 383.405C283.853 383.108 307.045 382.553 312.391 387.477H312.385L312.365 387.484Z"></path>
<path fill="#141413" d="M68.2181 461.735C69.871 448.185 81.5179 433.527 88.2443 422.101C93.1801 413.714 97.7256 406.962 103.694 399.117C109.288 391.761 114.989 384.841 120.047 377.142C126.628 367.12 132.108 360.651 141.16 352.73C146.884 347.719 154.2 341.25 161.209 337.881C162.197 337.408 170.683 334.826 171.525 334.818C177.608 334.765 181.588 340.272 180.922 346.085C182.873 345.122 186.126 344.549 187.924 343.702C188.613 343.381 188.62 342.625 189.431 342.266C193.87 340.303 202.326 342.434 204.805 346.619C205.562 347.895 205.608 350.026 205.983 351.485C206.542 351.92 213.789 348.758 215.403 348.613C221.594 348.055 228.696 356.496 230.379 361.904C230.662 362.828 231.198 367.495 231.427 367.724C233.861 365.784 237.205 363.469 240.274 362.606C256.841 357.947 264.118 361.972 265.35 379.044C266.98 401.76 253.895 418.503 245.309 437.919C244.505 439.745 242.179 452.356 241.544 455.388C239.294 466.173 237.174 478.585 241.23 489.18C242.753 493.152 251.614 499.086 255.838 499.193C269.199 499.529 282.591 488.164 291.743 480.037C294.697 477.417 298.692 474.27 301.355 471.306C307.829 464.119 310.009 457.221 318.213 451.088C324.388 446.474 328.077 441.838 336.624 442.357C349.167 443.121 353.276 453.608 354.133 464.63V468.373C353.659 469.236 353.215 471.085 353.123 472.039C351.485 489.195 339.907 506.442 329.684 519.931C322.452 529.471 313.652 536.583 304.882 545.244C304.132 545.985 303.543 547.712 303.099 548.132C302.556 548.643 301.355 548.682 300.819 549.193C299.801 550.156 297.842 553.501 296.832 554.364C286.876 562.965 277.074 571.245 266.276 579.036C264.968 579.975 261.738 583.283 261.18 583.627C259.458 584.696 257.53 585.567 255.418 586.934C250.535 590.096 245.531 592.464 240.473 595.328C236.83 597.391 234.068 600.446 229.752 601.072H227.662L225.153 599.82L225.573 598.995C224.119 599.728 220.255 595.978 219.911 594.855C219.23 592.609 220.018 588.66 221.625 586.949C224.142 584.276 237.733 578.792 242.041 576.095C248.416 572.108 257.599 564.584 263.567 559.696C269.414 554.907 274.832 549.384 280.647 544.687C281.512 543.992 282.576 541.914 283.494 541.166C284.573 540.287 286.999 539.615 287.649 538.981C289.616 537.071 292.134 533.329 294.169 531.335C298.699 526.913 304.905 522.78 308.632 518.931C311.67 515.799 313.009 513.614 315.381 510.254C319.544 504.364 324.564 499.079 328.651 493.113C334.948 483.909 342.172 470.596 338.905 459.215C337.145 453.074 331.428 458.611 328.804 460.414C322.054 465.066 320.31 468.213 315.32 474.514C306.099 486.155 289.119 501.24 275.957 508.016C270.34 510.903 256.206 513.423 250.03 512.01C238.491 509.375 230.616 499.873 226.232 489.554C220.89 477.004 225.849 460.437 229.308 447.765C234.381 429.196 242.057 411.751 247.781 393.381C250.222 391.066 253.42 376.821 250.964 375.255C250.007 374.644 242.722 375.988 241.46 376.676C240.197 377.363 235.606 381.351 234.473 382.405C224.165 391.983 222.803 399.323 216.444 410.826C209.259 423.827 200.458 438.462 195.645 452.493C193.594 458.489 193.426 469.022 184.909 468.74C183.141 468.679 180.669 467.999 179.713 466.433C178.167 463.912 178.091 460.406 178.664 457.618C181.075 445.97 188.314 434.429 193.579 423.812C194.926 421.1 195.79 418.602 197.405 415.555C204.713 401.752 214.523 388.897 219.497 373.514C220.668 369.901 221.433 366.761 218.426 363.79C214.738 360.147 213.215 362.24 209.855 363.905C201.361 368.121 202.808 369.71 198.92 377.134C190.748 392.732 181.802 407.878 174.448 423.88C173.928 425.018 172.122 427.104 171.884 428.013C169.558 437.003 165.457 446.046 161.485 454.632C160.62 456.503 158.983 460.918 157.98 462.262C157.835 462.461 154.123 464.928 153.886 464.974C151.843 465.364 144.481 464.111 143.548 462.133C142.783 460.498 142.614 455.273 143.043 453.318C144.015 448.857 145.943 446.803 147.611 443.297C154.751 428.272 159.518 413.92 168.885 400.018C175.114 390.768 180.402 383.161 186.164 373.559C188.528 369.633 193.265 364.08 194.849 360.17C195.507 358.55 195.622 356.946 195.515 355.22C191.926 354.762 190.411 356.381 187.549 357.886C173.53 365.241 173.109 374.354 164.393 385.972C162.725 388.187 159.511 391.021 157.957 393.289C148.912 406.442 139.515 423.712 131.909 437.629C129.942 441.227 125.504 452.806 121.341 453.731C118.142 454.441 115.096 453.081 114.653 449.751C113.704 442.663 120.178 434.559 123.246 428.173C127.225 419.901 129.169 414.057 134.579 406.48C145.384 391.334 154.276 374.537 166.191 360.521C167.584 358.879 171.448 350.026 170.285 348.132C169.941 347.589 169.635 347.864 169.221 347.895C163.796 348.3 159.771 352.34 155.845 355.403C146.532 362.675 135.85 370.917 129.062 380.709C120.92 392.441 108.89 410.574 104 423.537C102.424 427.707 100.656 431.923 98.9805 436.01C98.4831 437.224 96.9068 438.156 96.7078 438.523C94.0295 443.702 91.8179 449.843 89.0172 455.205C86.9281 459.207 83.9819 465.196 81.1353 468.977C78.9696 471.856 76.4826 473.811 72.7024 472.864C69.4119 472.039 69.3353 468.839 68.2104 466.288C68.3329 464.821 68.0344 463.141 68.2104 461.713L68.2181 461.735Z"></path>
</svg>
